<?xml version="1.0" encoding="utf-8"?>
<!-- Generator: Adobe Illustrator 23.0.3, SVG Export Plug-In . SVG Version: 6.00 Build 0)  -->
<svg version="1.1" id="Layer_1" xmlns="http://www.w3.org/2000/svg" xmlns:xlink="http://www.w3.org/1999/xlink" x="0px" y="0px"
	 viewBox="0 0 612 200" style="enable-background:new 0 0 612 200;" xml:space="preserve">
<style type="text/css">
	.st0{fill:#939598;}
	.st1{fill:#6EB4E4;}
</style>
<polygon class="st0" points="116,13.3 100,54.9 84.2,13.5 71.8,13.7 92.5,64.6 108.1,64.5 129.2,13.4 "/>
<path class="st1" d="M574.2,83.4c-0.1-23.1-18.2-35.9-38.3-35.8c-28.1,0.1-43.9,18.5-43.8,42.3c0.1,25.2,17.6,41.8,44.4,41.7
	c12,0,24.6-4,34.2-11.8l-6.7-11.7c-7.6,5.5-17.3,8.4-26.1,8.4c-14.4,0.1-24-6.3-26.6-19.6l60.8-0.2
	C573.5,93.1,574.2,88.1,574.2,83.4 M511.1,83.6c1.9-13.5,11-21.1,24-21.2c11.7,0,22,7.1,21.5,21L511.1,83.6z"/>
<path class="st1" d="M265.8,48.5c-12.7,0-22.2,5.4-29.8,13.6l0-10.6l-16.7,17.1l0.2,61.7l18-0.1l-0.2-52.6
	c6.9-8.5,15.1-12.8,22.3-12.8c12.7,0,16.9,8.1,16.9,21.2l0.2,44.1l17.9-0.1l-0.2-47.9C294.4,61.3,283.4,48.5,265.8,48.5z"/>
<path class="st1" d="M366.5,69.4l0.1,26.1l-0.1,0l0,9.1c-6.6,7.9-14.8,11.5-22.1,11.5c-12.8,0-17-8-17.1-20.9l-0.2-44l-17.9,18.4
	l0.1,29.2c0,12,2.9,19.7,8.6,25.6c5.1,5.1,12.6,8,20.5,8c12.1,0,20.9-4.8,28.1-11.6l0,9.1l2.4,0l15.7-0.1L384.4,51L366.5,69.4z"/>
<path class="st1" d="M461.4,35.5l0.1,24.6c-6.2-7.3-15.3-11.3-26.5-11.3c-22.7,0.1-37.6,17-37.6,41.9s15.3,41.1,38,41
	c12.1,0,21.8-4.9,28.1-13.4l0.5,10.9l16-0.1l-0.4-109.7L461.4,35.5z M438.5,115.6c-13.8,0-22.6-8.2-22.7-24.9
	c-0.1-16.6,8.7-25.5,22.7-25.5c13.9,0,22.9,8.7,23,24.6C461.5,107.3,451.3,115.5,438.5,115.6z"/>
<g>
	<path class="st0" d="M218,176.4l1.7-3.3c2.5,1.6,5.9,2.6,8.8,2.6c2.8,0,5.8-0.6,5.8-2.9c0-2-3.2-2.8-6.2-3.5
		c-4.9-1.1-9.3-2.6-9.3-7.6c0-5.1,4.7-7,10-7c3.4,0,6.8,1,9.5,2.5l-1.6,3.3c-2.7-1.2-5.4-2-8.2-2c-2.7,0-5.3,0.8-5.3,2.9
		c0,2.3,3.8,3,6.4,3.6c4.7,1,9.2,2.7,9.2,7.2c0,5.1-4.9,7.2-10.3,7.2C224.8,179.5,220.9,178.4,218,176.4z"/>
	<path class="st0" d="M260.3,167.1c0-7.4,5-12.4,12.6-12.4c7.6,0,12.6,5,12.6,12.4s-4.9,12.4-12.6,12.4
		C265.3,179.5,260.3,174.6,260.3,167.1z M280.9,167.1c0-5.7-3.3-8.6-8-8.6c-4.7,0-8.1,2.9-8.1,8.6c0,5.6,3.3,8.5,8.1,8.5
		C277.7,175.6,280.9,172.7,280.9,167.1z"/>
	<path class="st0" d="M326.4,175.1v3.9h-18.4v-23.7h4.4v19.9H326.4z"/>
	<path class="st0" d="M347.7,168.9v-13.7h4.4v13.5c0,4.3,2.3,6.9,7,6.9c4.7,0,7-2.6,7-6.9v-13.5h4.4v13.7c0,7.1-4.6,10.6-11.4,10.6
		C352.3,179.5,347.7,176,347.7,168.9z"/>
	<path class="st0" d="M412.9,159.1h-8.6V179h-4.4v-19.9h-8.6v-3.9h21.7V159.1z"/>
	<path class="st0" d="M433.6,155.2h4.4V179h-4.4V155.2z"/>
	<path class="st0" d="M460.7,167.1c0-7.4,5-12.4,12.6-12.4c7.6,0,12.6,5,12.6,12.4s-4.9,12.4-12.6,12.4
		C465.7,179.5,460.7,174.6,460.7,167.1z M481.3,167.1c0-5.7-3.3-8.6-8-8.6c-4.7,0-8.1,2.9-8.1,8.6c0,5.6,3.3,8.5,8.1,8.5
		C478.1,175.6,481.3,172.7,481.3,167.1z"/>
	<path class="st0" d="M531.1,155.2V179h-4.5l-13.9-17.2V179h-4.4v-23.7h4.5l13.8,17.2v-17.2H531.1z"/>
	<path class="st0" d="M553.1,176.4l1.7-3.3c2.5,1.6,5.9,2.6,8.8,2.6c2.8,0,5.8-0.6,5.8-2.9c0-2-3.2-2.8-6.2-3.5
		c-4.9-1.1-9.3-2.6-9.3-7.6c0-5.1,4.7-7,10-7c3.4,0,6.8,1,9.5,2.5l-1.6,3.3c-2.7-1.2-5.4-2-8.2-2c-2.7,0-5.3,0.8-5.3,2.9
		c0,2.3,3.8,3,6.4,3.6c4.7,1,9.2,2.7,9.2,7.2c0,5.1-4.9,7.2-10.3,7.2C559.9,179.5,556,178.4,553.1,176.4z"/>
</g>
<polygon class="st1" points="108.9,72.3 91.3,72.3 78.8,84.8 78.8,102.4 91.3,114.9 108.9,114.9 121.3,102.4 121.3,84.8 "/>
<polygon class="st0" points="126.1,77.5 176.6,56.5 167.4,47.2 127.1,65.1 145,25 136.2,16.4 115,66.7 "/>
<polygon class="st0" points="128.6,101 179.6,122.1 179.7,108.8 138.1,92.9 179.5,77 179.3,64.6 128.6,85.2 "/>
<polygon class="st0" points="125.7,108.3 115.1,119.6 137.1,169.7 146.3,160.3 127.5,120.3 168,137.4 176.3,128.4 "/>
<polygon class="st0" points="116.6,172.7 129,172.5 108.4,121.8 92.6,121.8 71.6,172.8 84.8,172.9 100.7,131.3 "/>
<polygon class="st0" points="74.7,108.7 24.1,129.7 33.4,139 73.7,121 55.8,161.2 64.6,169.7 85.7,119.7 "/>
<polygon class="st0" points="21.3,109.2 21.4,121.5 72.1,101 72.1,85.2 21.1,64.1 21.1,77.4 62.6,93.3 "/>
<polygon class="st0" points="64.3,16.7 55,25.9 72.9,66.2 32.8,48.4 24.2,57.1 74.2,78.2 85.2,67.2 "/>
</svg>
